<?xml version="1.0" standalone="no"?>
<!DOCTYPE svg PUBLIC "-//W3C//DTD SVG 20010904//EN"
 "http://www.w3.org/TR/2001/REC-SVG-20010904/DTD/svg10.dtd">
<svg version="1.0" xmlns="http://www.w3.org/2000/svg"
 width="261.000000pt" height="261.000000pt" viewBox="0 0 261.000000 261.000000"
 preserveAspectRatio="xMidYMid meet">
<metadata>
Created by potrace 1.11, written by Peter Selinger 2001-2013
</metadata>
<g transform="translate(0.000000,261.000000) scale(0.100000,-0.100000)"
fill="#000000" stroke="none">
<path d="M1125 2594 c-292 -43 -539 -168 -744 -375 -235 -237 -370 -554 -375
-883 -7 -405 158 -769 467 -1029 315 -265 753 -365 1151 -261 245 63 441 178
617 359 440 455 487 1167 110 1672 -200 269 -483 446 -812 509 -105 20 -309
24 -414 8z m268 -186 c31 -12 57 -54 57 -92 0 -26 -32 -56 -60 -56 -9 0 -26
-11 -39 -23 -17 -19 -21 -32 -17 -62 8 -60 -6 -75 -67 -74 -60 1 -193 -38
-279 -83 -31 -17 -88 -60 -127 -97 -68 -64 -71 -68 -71 -113 0 -35 -6 -54 -23
-74 l-23 -26 -75 51 c-104 72 -154 83 -240 50 -34 -13 -79 -85 -79 -126 0 -46
24 -90 63 -113 39 -24 65 -25 132 -4 31 10 63 14 80 10 25 -6 27 -10 20 -42
-9 -51 25 -115 83 -156 60 -42 93 -58 222 -108 132 -50 177 -78 266 -168 70
-70 71 -70 116 -66 55 6 130 -25 145 -59 11 -24 8 -64 -6 -81 -13 -17 -22 -65
-28 -145 -3 -44 -13 -92 -24 -117 -23 -48 -100 -126 -212 -213 -78 -62 -131
-123 -149 -173 -8 -24 -14 -27 -36 -22 -43 10 -206 75 -219 88 -6 6 -13 56
-16 116 -3 58 -9 119 -13 135 -9 38 -51 99 -98 145 -79 75 -156 224 -149 289
4 47 35 107 83 161 76 86 89 145 41 179 -16 12 -34 21 -40 21 -6 0 -19 4 -29
9 -9 5 -62 18 -117 30 -114 24 -198 53 -235 81 l-25 19 22 84 c50 196 149 367
297 512 128 127 266 214 426 268 45 15 45 15 64 -10 21 -27 72 -53 106 -53 12
0 47 24 80 56 77 73 112 83 193 52z m715 -331 l44 -44 -26 -7 c-15 -4 -44 -22
-65 -41 -48 -44 -89 -53 -125 -30 -36 24 -56 65 -56 115 0 53 12 75 58 104
l37 23 45 -37 c25 -21 64 -58 88 -83z m199 -330 c25 -13 35 -29 52 -79 48
-149 56 -203 56 -368 0 -173 -15 -254 -75 -407 -30 -77 -79 -164 -65 -115 35
121 -18 232 -116 247 -19 3 -71 -1 -116 -9 -74 -12 -86 -11 -121 4 -68 31
-158 159 -181 259 -7 34 -4 55 21 128 36 110 98 226 145 275 35 36 94 64 158
75 17 3 32 7 34 9 2 2 42 2 90 1 57 -2 96 -8 118 -20z"/>
</g>
</svg>
