<?xml version="1.0" encoding="UTF-8"?>
<svg width="27px" height="26px" viewBox="0 0 27 26" version="1.1" xmlns="http://www.w3.org/2000/svg" xmlns:xlink="http://www.w3.org/1999/xlink">
    <!-- Generator: Sketch 46.2 (44496) - http://www.bohemiancoding.com/sketch -->
    <title>Group</title>
    <desc>Created with Sketch.</desc>
    <defs></defs>
    <g id="MVP" stroke="none" stroke-width="1" fill="none" fill-rule="evenodd">
        <g id="Country-Clicked-Category-Clicked" transform="translate(-1168.000000, -912.000000)" stroke-width="2" stroke="#F73F0A">
            <g id="Group-2" transform="translate(1154.000000, 897.000000)">
                <g id="Group" transform="translate(15.000000, 16.000000)">
                    <polyline id="Path-4" points="0 6 0 0 6 0"></polyline>
                    <polyline id="Path-4" transform="translate(22.000000, 3.000000) rotate(-270.000000) translate(-22.000000, -3.000000) " points="19 6 19 0 25 0"></polyline>
                    <polyline id="Path-4" transform="translate(3.000000, 21.000000) rotate(-90.000000) translate(-3.000000, -21.000000) " points="0 24 0 18 6 18"></polyline>
                    <polyline id="Path-4" transform="translate(22.000000, 21.000000) rotate(-180.000000) translate(-22.000000, -21.000000) " points="19 24 19 18 25 18"></polyline>
                    <path d="M0,0 L9,9" id="Path-5"></path>
                    <path d="M15,0 L24,9" id="Path-5" transform="translate(19.500000, 4.500000) scale(-1, 1) translate(-19.500000, -4.500000) "></path>
                    <path d="M0,24 L9,15" id="Path-5"></path>
                    <path d="M25,24 L16,15" id="Path-5"></path>
                </g>
            </g>
        </g>
    </g>
</svg>